# MagicaVoxel @ Ephtracy

# group
o 

# material
mtllib player-3.mtl
usemtl palette

# normals
vn -1 0 0
vn 1 0 0
vn 0 0 1
vn 0 0 -1
vn 0 -1 0
vn 0 1 0

# texcoords
vt 0.0292969 0.5
vt 0.833984 0.5

# verts
v -0.4 0.7 0
v -0.4 0.7 -0.4
v -0.4 0.8 0
v -0.4 0.8 -0.1
v -0.4 0.8 -0.3
v -0.4 0.8 -0.4
v -0.4 0.9 -0.1
v -0.4 0.9 -0.3
v -0.3 0.4 -0.1
v -0.3 0.4 -0.3
v -0.3 0.7 -0.1
v -0.3 0.7 -0.3
v -0.3 0.8 0
v -0.3 0.8 -0.1
v -0.3 0.8 -0.3
v -0.3 0.8 -0.4
v -0.3 0.9 0
v -0.3 0.9 -0.1
v -0.3 0.9 -0.3
v -0.3 0.9 -0.4
v -0.2 0.4 -0.1
v -0.2 0.4 -0.3
v -0.2 0.7 0
v -0.2 0.7 -0.1
v -0.2 0.7 -0.3
v -0.2 0.7 -0.4
v -0.2 0.9 0
v -0.2 0.9 -0.4
v -0.4 0.7 0
v -0.4 0.8 0
v -0.3 0.8 0
v -0.3 0.9 0
v -0.2 0.7 0
v -0.2 0.9 0
v -0.4 0.8 -0.1
v -0.4 0.9 -0.1
v -0.3 0.4 -0.1
v -0.3 0.7 -0.1
v -0.3 0.8 -0.1
v -0.3 0.9 -0.1
v -0.2 0.4 -0.1
v -0.2 0.7 -0.1
v -0.4 0.8 -0.3
v -0.4 0.9 -0.3
v -0.3 0.4 -0.3
v -0.3 0.7 -0.3
v -0.3 0.8 -0.3
v -0.3 0.9 -0.3
v -0.2 0.4 -0.3
v -0.2 0.7 -0.3
v -0.4 0.7 -0.4
v -0.4 0.8 -0.4
v -0.3 0.8 -0.4
v -0.3 0.9 -0.4
v -0.2 0.7 -0.4
v -0.2 0.9 -0.4
v -0.3 0.4 -0.1
v -0.2 0.4 -0.1
v -0.3 0.4 -0.3
v -0.2 0.4 -0.3
v -0.4 0.7 0
v -0.2 0.7 0
v -0.3 0.7 -0.1
v -0.2 0.7 -0.1
v -0.3 0.7 -0.3
v -0.2 0.7 -0.3
v -0.4 0.7 -0.4
v -0.2 0.7 -0.4
v -0.4 0.8 0
v -0.3 0.8 0
v -0.4 0.8 -0.1
v -0.3 0.8 -0.1
v -0.4 0.8 -0.3
v -0.3 0.8 -0.3
v -0.4 0.8 -0.4
v -0.3 0.8 -0.4
v -0.3 0.9 0
v -0.2 0.9 0
v -0.4 0.9 -0.1
v -0.3 0.9 -0.1
v -0.4 0.9 -0.3
v -0.3 0.9 -0.3
v -0.3 0.9 -0.4
v -0.2 0.9 -0.4

# faces
f 3/2/1 2/2/1 1/2/1
f 4/2/1 2/2/1 3/2/1
f 5/2/1 2/2/1 4/2/1
f 6/2/1 2/2/1 5/2/1
f 7/2/1 5/2/1 4/2/1
f 8/2/1 5/2/1 7/2/1
f 11/1/1 10/1/1 9/1/1
f 12/1/1 10/1/1 11/1/1
f 17/2/1 14/2/1 13/2/1
f 18/2/1 14/2/1 17/2/1
f 19/2/1 16/2/1 15/2/1
f 20/2/1 16/2/1 19/2/1
f 21/1/2 22/1/2 24/1/2
f 24/1/2 22/1/2 25/1/2
f 23/2/2 24/2/2 27/2/2
f 25/2/2 26/2/2 27/2/2
f 24/2/2 25/2/2 27/2/2
f 27/2/2 26/2/2 28/2/2
f 31/2/3 30/2/3 29/2/3
f 33/2/3 31/2/3 29/2/3
f 33/2/3 32/2/3 31/2/3
f 34/2/3 32/2/3 33/2/3
f 39/2/3 36/2/3 35/2/3
f 40/2/3 36/2/3 39/2/3
f 41/1/3 38/1/3 37/1/3
f 42/1/3 38/1/3 41/1/3
f 43/2/4 44/2/4 47/2/4
f 47/2/4 44/2/4 48/2/4
f 45/1/4 46/1/4 49/1/4
f 49/1/4 46/1/4 50/1/4
f 51/2/4 52/2/4 53/2/4
f 51/2/4 53/2/4 55/2/4
f 53/2/4 54/2/4 55/2/4
f 55/2/4 54/2/4 56/2/4
f 59/1/5 58/1/5 57/1/5
f 60/1/5 58/1/5 59/1/5
f 63/2/5 62/2/5 61/2/5
f 64/2/5 62/2/5 63/2/5
f 65/2/5 63/2/5 61/2/5
f 67/2/5 65/2/5 61/2/5
f 67/2/5 66/2/5 65/2/5
f 68/2/5 66/2/5 67/2/5
f 69/2/6 70/2/6 71/2/6
f 71/2/6 70/2/6 72/2/6
f 73/2/6 74/2/6 75/2/6
f 75/2/6 74/2/6 76/2/6
f 77/2/6 78/2/6 80/2/6
f 79/2/6 80/2/6 81/2/6
f 80/2/6 78/2/6 82/2/6
f 81/2/6 80/2/6 82/2/6
f 82/2/6 78/2/6 83/2/6
f 83/2/6 78/2/6 84/2/6
